{"title":"Killing.Them.Softly.2012.CAM-APP","uid":7911593,"size":1506417966,"categoryP":"video","categoryS":"movies","magnet":"?xt=urn:btih:a070b0f47159961b1483f97cd6d6f80d7ae7d010&amp;dn=Killing.Them.Softly.2012.CAM-APP&amp;tr=udp%3A%2F%2Ftracker.openbittorrent.com%3A80&amp;tr=udp%3A%2F%2Fopen.demonii.com%3A1337&amp;tr=udp%3A%2F%2Ftracker.coppersurfer.tk%3A6969&amp;tr=udp%3A%2F%2Fexodus.desync.com%3A6969","seeders":0,"leechers":1,"uploader":"NepsterJay","files":3,"time":1355233914,"description":"[img]http://imageshack.dk/imagesfree/Nbw25984.png[/img]\n\n[img]http://imageshack.dk/imagesfree/uKL59574.jpg[/img]\n\nImdb: http://www.imdb.com/title/tt1764234/\n\nGeneral\n\nComplete name                            : Killing.Them.Softly.2012.CAM-APP\nFormat                                   : Matroska\nFormat version                           : Version 2\nFile size                                : 1.39 GiB\nDuration                                 : 1h 31mn\nOverall bit rate                         : 2 182 Kbps\nWriting application                      : Lavf51.12.1\nWriting library                          : Lavf51.12.1\n\nVideo\nID                                       : 1\nFormat                                   : AVC\nFormat/Info                              : Advanced Video Codec\nFormat profile                           : &lt;a class=&quot;__cf_email__&quot; href=&quot;/cdn-cgi/l/email-protection&quot; data-cfemail=&quot;42002331272e2b2c27020e716c72&quot;&gt;[email&amp;#160;protected]&lt;/a&gt;&lt;script cf-hash='f9e31' type=&quot;text/javascript&quot;&gt;\n/* &lt;![CDATA[ */!function(){try{var t=&quot;currentScript&quot;in document?document.currentScript:function(){for(var t=document.getElementsByTagName(&quot;script&quot;),e=t.length;e--;)if(t[e].getAttribute(&quot;cf-hash&quot;))return t[e]}();if(t&amp;&amp;t.previousSibling){var e,r,n,i,c=t.previousSibling,a=c.getAttribute(&quot;data-cfemail&quot;);if(a){for(e=&quot;&quot;,r=parseInt(a.substr(0,2),16),n=2;a.length-n;n+=2)i=parseInt(a.substr(n,2),16)^r,e+=String.fromCharCode(i);e=document.createTextNode(e),c.parentNode.replaceChild(e,c)}}}catch(u){}}();/* ]]&gt; */&lt;/script&gt;\nFormat settings, CABAC                   : No\nFormat settings, ReFrames                : 4 frames\nFormat settings, GOP                     : M=1, N=12\nCodec ID                                 : V_MPEG4/ISO/AVC\nDuration                                 : 1h 31mn\nBit rate                                 : 1 946 Kbps\nWidth                                    : 720 pixels\nHeight                                   : 304 pixels\nDisplay aspect ratio                     : 1.875\nOriginal display aspect ratio            : 4:3\nFrame rate                               : 29.970 fps\nStandard                                 : NTSC\nColor space                              : YUV\nChroma subsampling                       : 4:2:0\nBit depth                                : 8 bits\nScan type                                : Progressive\nBits/(Pixel*Frame)                       : 0.297\nStream size                              : 1.24 GiB (89%)\nDefault                                  : Yes\nForced                                   : No\nColor primaries                          : BT.601-6 525, BT.1358 525, BT.1700 NTSC, SMPTE 170M\nTransfer characteristics                 : BT.601-6 525, BT.601-6 625, BT.1358 525, BT.1358 625, BT.1700 NTSC, SMPTE 170M\nMatrix coefficients                      : BT.601-6 525, BT.1358 525, BT.1700 NTSC, SMPTE 170M\n\nAudio\nID                                       : 2\nFormat                                   : AC-3\nFormat/Info                              : Audio Coding 3\nMode extension                           : CM (complete main)\nCodec ID                                 : A_AC3\nDuration                                 : 1h 31mn\nBit rate mode                            : Constant\nBit rate                                 : 192 Kbps\nChannel(s)                               : 2 channels\nChannel positions                        : Side: L R\nSampling rate                            : 48.0 KHz\nBit depth                                : 16 bits\nCompression mode                         : Lossy\nStream size                              : 125 MiB (9%)\nDefault                                  : Yes\nForced                                   : No\n\n\nNote: IT a CAM so get sampel to see the quality\n","torrent":{"xt":"urn:btih:a070b0f47159961b1483f97cd6d6f80d7ae7d010","amp;dn":"Killing.Them.Softly.2012.CAM-APP","amp;tr":["udp%3A%2F%2Ftracker.openbittorrent.com%3A80","udp%3A%2F%2Fopen.demonii.com%3A1337","udp%3A%2F%2Ftracker.coppersurfer.tk%3A6969","udp%3A%2F%2Fexodus.desync.com%3A6969"],"infoHash":"a070b0f47159961b1483f97cd6d6f80d7ae7d010","infoHashBuffer":{"type":"Buffer","data":[160,112,176,244,113,89,150,27,20,131,249,124,214,214,248,13,122,231,208,16]},"announce":[],"urlList":[]}}